<?xml version="1.0" standalone="no"?>
<!DOCTYPE svg PUBLIC "-//W3C//DTD SVG 1.0//EN" "http://www.w3.org/TR/2001/REC-SVG-20010904/DTD/svg10.dtd">
<svg xmlns="http://www.w3.org/2000/svg" xmlns:xlink="http://www.w3.org/1999/xlink" id="body_1" width="4350" height="2072">

<g transform="matrix(3.069866 0 0 3.06963 0 0)">
    <path transform="matrix(0.133302 0 0 -0.1333992 0 674.9999)"  d="M3552 3408C 3540 3392 3401 2972 3361 2826C 3325 2700 3321 2612 3346 2516C 3404 2289 3608 2130 3840 2130C 3983 2130 4089 2172 4195 2271C 4401 2465 4411 2779 4216 2988C 4114 3096 4019 3140 3861 3149L3861 3149L3758 3155L3743 3200C 3727 3248 3655 3365 3621 3399C 3597 3423 3567 3426 3552 3408zM3630 3200C 3661 3140 3655 3106 3596 2985C 3536 2864 3441 2698 3440 2716C 3440 2744 3596 3240 3605 3240C 3608 3240 3619 3222 3630 3200zM3932 3016C 4050 2988 4142 2911 4197 2794C 4221 2743 4225 2723 4225 2640C 4225 2555 4222 2538 4194 2480C 4138 2361 4033 2282 3902 2259C 3726 2228 3538 2338 3479 2508C 3469 2538 3474 2549 3575 2725C 3633 2827 3692 2935 3705 2964C 3726 3012 3733 3019 3762 3023C 3830 3031 3877 3029 3932 3016z" stroke="none" fill="#000000" fill-rule="nonzero" />
    <path transform="matrix(0.133302 0 0 -0.1333992 0 674.9999)"  d="M1307 3150C 1209 3125 1136 3059 1107 2969C 1073 2866 1094 2777 1167 2708C 1216 2663 1250 2644 1381 2590C 1525 2532 1580 2480 1580 2405C 1580 2335 1500 2258 1414 2245C 1319 2231 1200 2295 1166 2380L1166 2380L1150 2420L1099 2401C 1071 2390 1045 2379 1043 2376C 1040 2373 1049 2346 1064 2316C 1118 2206 1258 2121 1386 2120C 1454 2120 1546 2158 1604 2211C 1723 2319 1731 2479 1624 2586C 1577 2633 1508 2671 1380 2721C 1228 2779 1181 2852 1232 2950C 1263 3010 1306 3034 1384 3034C 1459 3034 1512 3009 1564 2949L1564 2949L1600 2906L1642 2937C 1665 2954 1686 2973 1688 2979C 1690 2985 1665 3017 1632 3049C 1542 3137 1414 3176 1307 3150z" stroke="none" fill="#000000" fill-rule="nonzero" />
    <path transform="matrix(0.133302 0 0 -0.1333992 0 674.9999)"  d="M2160 2645L2160 2139L2218 2142L2275 2145L2278 2358L2280 2570L2515 2570L2750 2570L2752 2358L2755 2145L2813 2142L2870 2139L2870 2645L2870 3150L2810 3150L2750 3150L2750 2920L2750 2690L2515 2690L2280 2690L2280 2920L2280 3150L2220 3150L2160 3150L2160 2645z" stroke="none" fill="#000000" fill-rule="nonzero" />
    <path transform="matrix(0.133302 0 0 -0.1333992 0 674.9999)"  d="M4820 2645L4820 2139L4878 2142L4935 2145L4938 2368L4940 2590L5136 2590L5331 2590L5328 2648L5325 2705L5133 2708L4940 2710L4940 2870L4940 3030L5175 3030L5410 3030L5410 3090L5410 3150L5115 3150L4820 3150L4820 2645z" stroke="none" fill="#000000" fill-rule="nonzero" />
    <path transform="matrix(0.133302 0 0 -0.1333992 0 674.9999)"  d="M5880 2645L5880 2139L5938 2142L5995 2145L5998 2343L6000 2540L6083 2540L6166 2540L6280 2340L6395 2140L6463 2140C 6500 2140 6530 2143 6530 2146C 6530 2149 6478 2241 6414 2351C 6350 2461 6299 2552 6301 2554C 6303 2555 6326 2568 6351 2583C 6408 2616 6446 2658 6478 2728C 6498 2773 6501 2793 6498 2858C 6492 2983 6433 3072 6321 3124C 6280 3143 6254 3145 6078 3148L6078 3148L5880 3152L5880 2645zM6276 3011C 6299 3001 6330 2975 6346 2954C 6372 2921 6375 2908 6375 2845C 6375 2782 6372 2769 6346 2736C 6300 2675 6255 2660 6118 2660L6118 2660L6000 2660L6000 2845L6000 3030L6118 3030C 6211 3030 6244 3026 6276 3011z" stroke="none" fill="#000000" fill-rule="nonzero" />
    <path transform="matrix(0.133302 0 0 -0.1333992 0 674.9999)"  d="M6980 2645L6980 2139L7038 2142L7095 2145L7095 2645L7095 3145L7038 3148L6980 3151L6980 2645z" stroke="none" fill="#000000" fill-rule="nonzero" />
    <path transform="matrix(0.133302 0 0 -0.1333992 0 674.9999)"  d="M7910 3127C 7744 3070 7633 2962 7578 2801C 7547 2711 7547 2562 7579 2476C 7657 2258 7869 2118 8095 2133C 8260 2143 8409 2223 8498 2347L8498 2347L8520 2379L8476 2409C 8451 2426 8428 2440 8423 2440C 8419 2440 8406 2426 8395 2409C 8367 2365 8270 2295 8207 2273C 8171 2261 8126 2255 8060 2255C 7972 2255 7959 2258 7898 2288C 7813 2329 7731 2416 7699 2497C 7682 2541 7676 2576 7676 2645C 7675 2726 7678 2742 7707 2803C 7746 2885 7813 2953 7896 2995C 7951 3023 7963 3025 8065 3025C 8169 3025 8179 3023 8245 2992C 8294 2969 8332 2941 8371 2900L8371 2900L8426 2841L8473 2874L8520 2908L8480 2959C 8352 3120 8104 3194 7910 3127z" stroke="none" fill="#000000" fill-rule="nonzero" />
    <path transform="matrix(0.133302 0 0 -0.1333992 0 674.9999)"  d="M9152 3098C 9141 3069 9055 2843 8961 2596C 8867 2349 8790 2146 8790 2144C 8790 2142 8818 2140 8853 2140L8853 2140L8915 2140L8974 2295L9032 2450L9217 2448L9402 2445L9459 2295L9517 2145L9579 2142C 9612 2140 9640 2143 9640 2147C 9640 2151 9554 2379 9449 2653L9449 2653L9257 3150L9214 3150C 9172 3150 9171 3150 9152 3098zM9285 2747C 9321 2654 9350 2577 9350 2574C 9350 2572 9289 2570 9214 2570C 9088 2570 9078 2571 9085 2588C 9089 2597 9116 2668 9145 2745C 9174 2822 9202 2893 9205 2903C 9209 2913 9214 2919 9216 2918C 9218 2916 9248 2839 9285 2747z" stroke="none" fill="#000000" fill-rule="nonzero" />
</g>
</svg>