<svg width="112" height="14" xmlns="http://www.w3.org/2000/svg">

 <g>
  <title>background</title>
  <rect fill="none" id="canvas_background" height="602" width="802" y="-1" x="-1"/>
 </g>
 <g>
  <title>Layer 1</title>
  <g stroke="null" id="svg_22">
   <g stroke="null" id="svg_31" transform="matrix(0.0788082 0 0 0.0788021 -122.193 -12.6074)">
    <path id="svg_23" fill-rule="nonzero" fill="#000000" d="m2029.72583,165.15894c-1.59961,2.1344 -20.12866,58.16206 -25.46069,77.63834c-4.79895,16.80829 -5.33215,28.54742 -1.99951,41.35376c7.73145,30.28162 34.92505,51.4921 65.85107,51.4921c19.06226,0 33.19238,-5.60278 47.32227,-18.8093c27.46021,-25.87946 28.79321,-67.76682 2.79932,-95.64723c-13.59668,-14.40712 -26.2605,-20.27669 -47.32227,-21.47728l0,0l-13.72998,-0.80038l-1.99951,-6.00296c-2.13281,-6.40317 -11.73071,-22.01086 -16.26294,-26.54645c-3.19922,-3.20157 -7.19824,-3.60178 -9.19775,-1.20059zm10.39746,27.74704c4.13245,8.00394 3.33252,12.53952 -4.53223,28.68082c-7.99805,16.1413 -20.66187,38.28558 -20.79504,35.8844c0,-3.7352 20.79504,-69.90118 21.99475,-69.90118c0.3999,0 1.86621,2.40118 3.33252,5.33597zm40.25732,24.54544c15.72974,3.73518 27.99341,14.00693 35.32495,29.61462c3.19922,6.80338 3.73242,9.47134 3.73242,20.54349c0,11.33893 -0.3999,13.60672 -4.13232,21.34387c-7.46484,15.87451 -21.46143,26.41302 -38.92407,29.48123c-23.46118,4.13535 -48.52197,-10.53854 -56.38684,-33.21643c-1.33301,-4.00195 -0.6665,-5.46936 12.797,-28.9476c7.73145,-13.60672 15.59644,-28.01385 17.32935,-31.88242c2.79932,-6.40315 3.73242,-7.33696 7.59814,-7.87054c9.06445,-1.0672 15.32983,-0.8004 22.66138,0.93378z"/>
    <path id="svg_24" fill-rule="nonzero" fill="#000000" d="m1730.46277,199.57594c-13.0636,3.33498 -22.79468,12.13931 -26.6604,24.14525c-4.53223,13.74011 -1.73291,25.61264 7.99817,34.81717c6.53174,6.00299 11.06396,8.53757 28.52661,15.74112c19.19543,7.73715 26.5271,14.67392 26.5271,24.67886c0,9.33792 -10.66418,19.60968 -22.12817,21.34387c-12.6637,1.86758 -28.52661,-6.66998 -33.05884,-18.00891l0,0l-2.13281,-5.33597l-6.79846,2.53461c-3.73242,1.46738 -7.19836,2.93475 -7.46497,3.33496c-0.3999,0.40021 0.7998,4.00198 2.79944,8.00397c7.19824,14.67389 25.8606,26.01285 42.92322,26.14624c9.06445,0 21.32825,-5.06918 29.05981,-12.13934c15.86292,-14.4071 16.92932,-35.75098 2.66602,-50.02469c-6.26514,-6.26978 -15.46301,-11.33893 -32.52563,-18.00888c-20.26196,-7.73718 -26.5271,-17.4753 -19.72876,-30.54843c4.13245,-8.00397 9.86438,-11.20552 20.26196,-11.20552c9.99768,0 17.06262,3.33498 23.99438,11.33891l0,0l4.79883,5.73618l5.59863,-4.13538c3.06604,-2.26779 5.86536,-4.80235 6.13196,-5.60278c0.2666,-0.80038 -3.06592,-5.06914 -7.46497,-9.33792c-11.99719,-11.73914 -29.05981,-16.94171 -43.32312,-13.47331z"/>
    <path id="svg_25" fill-rule="nonzero" fill="#000000" d="m1844.16943,266.94254l0,67.5l7.73145,-0.40021l7.59827,-0.40021l0.3999,-28.41403l0.2666,-28.28064l31.32593,0l31.32605,0l0.2666,28.28064l0.3999,28.41403l7.73145,0.40021l7.59827,0.40021l0,-67.5l0,-67.36659l-7.99817,0l-7.99805,0l0,30.68182l0,30.68178l-31.32605,0l-31.32593,0l0,-30.68178l0,-30.68182l-7.99817,0l-7.99805,0l0,67.36659z"/>
    <path id="svg_26" fill-rule="nonzero" fill="#000000" d="m2198.75269,266.94254l0,67.5l7.73145,-0.40021l7.59839,-0.40021l0.3999,-29.74802l0.2666,-29.61462l26.1272,0l25.9939,0l-0.3999,-7.73715l-0.3999,-7.60376l-25.59399,-0.40021l-25.72729,-0.26678l0,-21.34387l0,-21.34387l31.32593,0l31.32593,0l0,-8.00397l0,-8.00392l-39.32397,0l-39.32422,0l0,67.36659z"/>
    <path id="svg_27" fill-rule="nonzero" fill="#000000" d="m2340.05298,266.94254l0,67.5l7.73145,-0.40021l7.59814,-0.40021l0.3999,-26.41302l0.2666,-26.27966l11.06421,0l11.06396,0l15.19653,26.67984l15.32959,26.67984l9.06445,0c4.93213,0 8.9314,-0.40018 8.9314,-0.80038c0,-0.40021 -6.93164,-12.67291 -15.46313,-27.34683c-8.53125,-14.67392 -15.32959,-26.81323 -15.06299,-27.08005c0.2666,-0.13339 3.33252,-1.86758 6.66504,-3.86856c7.59814,-4.40219 12.66357,-10.00494 16.92944,-19.3429c2.66577,-6.00296 3.06592,-8.67096 2.66577,-17.34189c-0.79956,-16.6749 -8.66455,-28.54745 -23.59424,-35.48419c-5.46533,-2.53458 -8.9314,-2.80139 -32.39233,-3.20158l0,0l-26.3938,-0.53358l0,67.63339zm52.7876,-48.82413c3.06592,1.334 7.19824,4.80238 9.33105,7.60376c3.46582,4.40216 3.86572,6.13635 3.86572,14.54054c0,8.40413 -0.3999,10.13832 -3.86572,14.54048c-6.13184,8.13736 -12.13062,10.13834 -30.39307,10.13834l0,0l-15.72949,0l0,-24.67882l0,-24.67888l15.72949,0c12.39722,0 16.79614,0.5336 21.06201,2.53458z"/>
    <path id="svg_28" fill-rule="nonzero" fill="#000000" d="m2486.68506,266.94254l0,67.5l7.73145,-0.40021l7.59814,-0.40021l0,-66.69958l0,-66.69962l-7.59814,-0.40019l-7.73145,-0.40019l0,67.5z"/>
    <path id="svg_29" fill-rule="nonzero" fill="#000000" d="m2610.65601,202.6441c-22.12817,7.60376 -36.9248,22.01086 -44.25635,43.48816c-4.13232,12.00592 -4.13232,31.88239 0.1333,43.35474c10.39746,29.08102 38.65771,47.7569 68.78394,45.75592c21.99487,-1.33398 41.85669,-12.00592 53.72046,-28.54742l0,0l2.93262,-4.2688l-5.86523,-4.00195c-3.33228,-2.26779 -6.39844,-4.13538 -7.06494,-4.13538c-0.5332,0 -2.26611,1.86758 -3.73242,4.13538c-3.73242,5.86957 -16.6626,15.20749 -25.06079,18.14227c-4.79883,1.6008 -10.79761,2.40118 -19.59546,2.40118c-11.73047,0 -13.46338,-0.40018 -21.59473,-4.40216c-11.33081,-5.46936 -22.26172,-17.0751 -26.52734,-27.88043c-2.26611,-5.86957 -3.06592,-10.53854 -3.06592,-19.74307c-0.1333,-10.80536 0.26685,-12.93973 4.13257,-21.07709c5.19873,-10.93872 14.12988,-20.00989 25.19409,-25.61264c7.33154,-3.73517 8.93115,-4.00197 22.52783,-4.00197c13.86353,0 15.19653,0.2668 23.99438,4.40218c6.53198,3.06818 11.59741,6.80334 16.79614,12.27271l0,0l7.33154,7.87054l6.26538,-4.40215l6.26489,-4.5356l-5.33203,-6.80333c-17.0625,-21.47726 -50.12158,-31.34883 -75.98193,-22.41109z"/>
    <path id="svg_30" fill-rule="nonzero" fill="#000000" d="m2776.21704,206.51271c-1.46631,3.86855 -12.93042,34.01678 -25.46069,66.96638c-12.53027,32.94958 -22.79468,60.02963 -22.79468,60.29642c0,0.26682 3.73242,0.5336 8.39795,0.5336l0,0l8.26465,0l7.86499,-20.67688l7.73145,-20.67685l24.66089,0.26678l24.66089,0.40021l7.59839,20.00986l7.73145,20.00989l8.26465,0.40021c4.39893,0.26678 8.13135,-0.13339 8.13135,-0.66699c0,-0.5336 -11.46387,-30.94864 -25.46045,-67.5l0,0l-25.59424,-66.29939l-5.73193,0c-5.59863,0 -5.73193,0 -8.26465,6.93677zm17.729,46.8231c4.79883,12.40613 8.66479,22.67786 8.66479,23.07806c0,0.26678 -8.13159,0.53357 -18.12915,0.53357c-16.7959,0 -18.12915,-0.13339 -17.1958,-2.40118c0.5332,-1.20059 4.13232,-10.67194 7.99805,-20.94366c3.86572,-10.27173 7.59814,-19.74307 7.99805,-21.07706c0.5332,-1.33401 1.19971,-2.1344 1.46631,-2.00099c0.2666,0.2668 4.26563,10.53853 9.19775,22.81126z"/>
   </g>
  </g>
 </g>
</svg>