<?xml version="1.0" standalone="no"?>
<!DOCTYPE svg PUBLIC "-//W3C//DTD SVG 20010904//EN"
 "http://www.w3.org/TR/2001/REC-SVG-20010904/DTD/svg10.dtd">
<svg version="1.0" xmlns="http://www.w3.org/2000/svg"
 width="1063.000000pt" height="506.000000pt" viewBox="0 0 1063.000000 506.000000"
 preserveAspectRatio="xMidYMid meet">

<g transform="translate(0.000000,506.000000) scale(0.100000,-0.100000)"
fill="#000000" stroke="none">
<path d="M3552 3408 c-12 -16 -151 -436 -191 -582 -36 -126 -40 -214 -15 -310
58 -227 262 -386 494 -386 143 0 249 42 355 141 206 194 216 508 21 717 -102
108 -197 152 -355 161 l-103 6 -15 45 c-16 48 -88 165 -122 199 -24 24 -54 27
-69 9z m78 -208 c31 -60 25 -94 -34 -215 -60 -121 -155 -287 -156 -269 0 28
156 524 165 524 3 0 14 -18 25 -40z m302 -184 c118 -28 210 -105 265 -222 24
-51 28 -71 28 -154 0 -85 -3 -102 -31 -160 -56 -119 -161 -198 -292 -221 -176
-31 -364 79 -423 249 -10 30 -5 41 96 217 58 102 117 210 130 239 21 48 28 55
57 59 68 8 115 6 170 -7z"/>
<path d="M1307 3150 c-98 -25 -171 -91 -200 -181 -34 -103 -13 -192 60 -261
49 -45 83 -64 214 -118 144 -58 199 -110 199 -185 0 -70 -80 -147 -166 -160
-95 -14 -214 50 -248 135 l-16 40 -51 -19 c-28 -11 -54 -22 -56 -25 -3 -3 6
-30 21 -60 54 -110 194 -195 322 -196 68 0 160 38 218 91 119 108 127 268 20
375 -47 47 -116 85 -244 135 -152 58 -199 131 -148 229 31 60 74 84 152 84 75
0 128 -25 180 -85 l36 -43 42 31 c23 17 44 36 46 42 2 6 -23 38 -56 70 -90 88
-218 127 -325 101z"/>
<path d="M2160 2645 l0 -506 58 3 57 3 3 213 2 212 235 0 235 0 2 -212 3 -213
58 -3 57 -3 0 506 0 505 -60 0 -60 0 0 -230 0 -230 -235 0 -235 0 0 230 0 230
-60 0 -60 0 0 -505z"/>
<path d="M4820 2645 l0 -506 58 3 57 3 3 223 2 222 196 0 195 0 -3 58 -3 57
-192 3 -193 2 0 160 0 160 235 0 235 0 0 60 0 60 -295 0 -295 0 0 -505z"/>
<path d="M5880 2645 l0 -506 58 3 57 3 3 198 2 197 83 0 83 0 114 -200 115
-200 68 0 c37 0 67 3 67 6 0 3 -52 95 -116 205 -64 110 -115 201 -113 203 2 1
25 14 50 29 57 33 95 75 127 145 20 45 23 65 20 130 -6 125 -65 214 -177 266
-41 19 -67 21 -243 24 l-198 4 0 -507z m396 366 c23 -10 54 -36 70 -57 26 -33
29 -46 29 -109 0 -63 -3 -76 -29 -109 -46 -61 -91 -76 -228 -76 l-118 0 0 185
0 185 118 0 c93 0 126 -4 158 -19z"/>
<path d="M6980 2645 l0 -506 58 3 57 3 0 500 0 500 -57 3 -58 3 0 -506z"/>
<path d="M7910 3127 c-166 -57 -277 -165 -332 -326 -31 -90 -31 -239 1 -325
78 -218 290 -358 516 -343 165 10 314 90 403 214 l22 32 -44 30 c-25 17 -48
31 -53 31 -4 0 -17 -14 -28 -31 -28 -44 -125 -114 -188 -136 -36 -12 -81 -18
-147 -18 -88 0 -101 3 -162 33 -85 41 -167 128 -199 209 -17 44 -23 79 -23
148 -1 81 2 97 31 158 39 82 106 150 189 192 55 28 67 30 169 30 104 0 114 -2
180 -33 49 -23 87 -51 126 -92 l55 -59 47 33 47 34 -40 51 c-128 161 -376 235
-570 168z"/>
<path d="M9152 3098 c-11 -29 -97 -255 -191 -502 -94 -247 -171 -450 -171
-452 0 -2 28 -4 63 -4 l62 0 59 155 58 155 185 -2 185 -3 57 -150 58 -150 62
-3 c33 -2 61 1 61 5 0 4 -86 232 -191 506 l-192 497 -43 0 c-42 0 -43 0 -62
-52z m133 -351 c36 -93 65 -170 65 -173 0 -2 -61 -4 -136 -4 -126 0 -136 1
-129 18 4 9 31 80 60 157 29 77 57 148 60 158 4 10 9 16 11 15 2 -2 32 -79 69
-171z"/>
</g>
</svg>
