<?xml version="1.0" standalone="no"?>
<!DOCTYPE svg PUBLIC "-//W3C//DTD SVG 20010904//EN"
 "http://www.w3.org/TR/2001/REC-SVG-20010904/DTD/svg10.dtd">
<svg version="1.0" xmlns="http://www.w3.org/2000/svg"
 width="50.000000pt" height="50.000000pt" viewBox="0 0 50.000000 50.000000"
 preserveAspectRatio="xMidYMid meet">

<g transform="translate(0.000000,50.000000) scale(0.100000,-0.100000)"
fill="#000000" stroke="none">
<path d="M95 359 c-38 -116 -45 -149 -39 -183 9 -55 26 -87 68 -123 92 -81
225 -64 293 38 48 73 41 167 -20 235 -40 46 -76 64 -130 64 -40 0 -46 3 -57
30 -15 37 -48 80 -60 80 -5 0 -30 -64 -55 -141z m80 40 c5 -14 -6 -45 -31 -94
-21 -41 -40 -73 -42 -71 -6 7 51 186 59 186 4 0 11 -9 14 -21z m145 -72 c103
-54 107 -196 8 -257 -67 -41 -165 -15 -202 52 l-20 35 47 81 c26 45 47 85 47
91 0 27 67 26 120 -2z"/>
</g>
</svg>
